# xmcd CD database file
# Copyright (C) 1993-1998 Ti Kan
# 
# Track frame offsets:
#     150
#     12077
#     34887
#     56307
#     77462
#     96570
#     107440
#     128820
#     140637
#     158170
#     171100
#     182662
#     201730
#     222015
#     234320
# 
# Disc length: 3316 seconds
# 
# Revision: 1
# Processed by: cddbd v1.4b41PL1 Copyright (c) Steve Scherf et al.
# Submitted via: DiscPlay 4.0.4
# 
DISCID=c60cf20f
DTITLE=Lightnin' Hopkins - Shake It Baby
DYEAR=1900
DGENRE=
TTITLE0=Shining Moon
TTITLE1=I'll Be Gone
TTITLE2=Shake It Baby
TTITLE3=Goin' Back Home
TTITLE4=Good Times
TTITLE5=What I'd Say
TTITLE6=Don't Wake Me
TTITLE7=Talk of the Town
TTITLE8=California Landslide
TTITLE9=Rosie Mae
TTITLE10=Easy on Your Heels
TTITLE11=Leave Jike Mary Alone
TTITLE12=You Treat Poor Lightnin' Wrong
TTITLE13=Shaggy Dog
TTITLE14=Santa Fe Blues
EXTD=
EXTT0=
EXTT1=
EXTT2=
EXTT3=
EXTT4=
EXTT5=
EXTT6=
EXTT7=
EXTT8=
EXTT9=
EXTT10=
EXTT11=
EXTT12=
EXTT13=
EXTT14=
PLAYORDER=
